<svg width="332" height="96" viewBox="0 0 332 96" fill="none" xmlns="http://www.w3.org/2000/svg">
<path d="M60.543 43.6211C60.6602 43.5039 115.68 2.66405 93.7656 0.847641C81.4023 -0.148453 42.5547 22.3515 19.293 40.164C13.9609 44.2656 9.39062 48.1328 6.10938 51.4726C2.65234 54.9883 0.601562 57.9765 0.484375 60.0273C0.425781 61.668 1.42188 62.664 3.58984 63.0156C14.7812 64.5976 43.7852 54.5781 63.0625 46.7265C61.832 47.7226 60.6016 48.8359 59.3125 49.9492C51.9883 56.4531 44.4297 64.539 39.2734 72.5664C37.5156 75.2031 36.6367 76.9023 36.4023 77.7226C35.5234 80.418 36.6367 80.418 39.0977 78.4844C39.9766 77.7812 41.207 76.6094 42.7305 75.0273C48.4727 68.9922 58.1406 57.5664 60.543 54.5781C61.0117 53.9336 61.0117 53.2305 60.4844 52.9961C60.0156 52.7031 59.1953 52.9961 58.7266 53.582C56.3242 56.5703 46.7734 67.8789 41.0898 73.7969C40.9141 73.9726 40.7969 74.1484 40.6211 74.2656C40.8555 73.914 41.0898 73.5625 41.3242 73.1523C46.3047 65.4765 53.5703 57.6836 60.7188 51.3555C64 48.4844 67.2227 45.8476 70.1523 43.7969C73.5508 42.2734 76.4219 40.9844 78.3555 39.9883C81.6953 38.289 83.2188 36.8828 82.3398 36.0039C82.1055 35.7695 81.7539 35.6523 81.168 35.7109C78.8828 35.9453 74.6641 38.1719 69.625 41.7461C69.332 41.8633 69.0391 41.9805 68.7461 42.0976C50.3477 49.9492 16.6562 62.3125 4.76172 60.6133C3.58984 60.4375 3.0625 60.0273 3.0625 59.3242C3.12109 57.9765 4.82031 55.6328 7.69141 52.7031C10.7969 49.539 15.25 45.789 20.4648 41.8047C43.2578 24.3437 80.9922 2.25389 92.7109 3.24998C109.586 4.65623 59.5469 41.8633 59.4297 41.9805C58.7852 42.4492 58.4922 43.2109 58.8438 43.6797C59.1367 44.0898 59.8984 44.0898 60.543 43.6211ZM78.6484 48.0156C78.707 47.664 82.2227 44.9687 85.9141 42.1562C87.6719 40.75 89.4883 39.3437 91.0703 38.0547C92.5938 37.9375 94.1172 37.7617 95.4648 37.4687C94.4102 38.1719 93.0039 39.168 91.4219 40.5742C85.4453 45.8476 77.3594 52.9961 77.2422 55.164C77.2422 56.2187 77.9453 56.5703 79.7031 56.1015C82.9258 55.1055 86.8516 53.4648 90.4258 51.707C95.1719 49.4219 99.5078 46.9609 101.031 45.789C101.676 45.2617 101.91 44.5586 101.617 44.0898C101.266 43.6211 100.504 43.6797 99.8594 44.1484C98.5117 45.2031 94.5273 47.4883 89.957 49.6562C86.7344 51.2383 83.2188 52.7031 80.2891 53.6406C81.9883 51.5898 88.082 46.1406 92.8281 42.039C95.0547 40.0469 99.8008 36.5898 99.4492 35.0078C99.2734 34.3047 98.6875 34.1289 97.6914 34.6562C96.9883 35.0078 95.5234 35.3008 93.8828 35.4765C94.8203 34.539 95.4062 33.6601 95.4062 33.0742C95.4062 31.7851 93.9414 31.4922 90.3086 32.664C87.4375 33.543 85.7969 34.3047 85.0352 34.9492C83.5117 36.1211 83.5703 37 84.625 37.6445C85.0938 37.9375 85.9141 38.0547 86.9102 38.1719C87.1445 38.1719 87.4375 38.1719 87.7305 38.1719C86.793 38.9336 85.7969 39.6953 84.7422 40.5156C80.4648 43.7969 76.3047 47.0195 76.1289 48.6015C76.0703 49.2461 76.5391 49.5976 77.2422 49.4219C77.9453 49.3047 78.5898 48.6015 78.6484 48.0156ZM90.8359 35.7695C89.7812 35.8281 88.7266 35.8281 87.9062 35.7695H87.8477C88.4922 35.5351 89.2539 35.2422 90.25 34.8906C92.125 34.3047 92.8281 33.7187 92.8281 33.8359C92.8281 34.0703 92.0664 34.7734 90.8359 35.7695ZM109.645 43.4453C108.59 40.5156 105.309 41.1015 102.027 42.918C100.562 43.7969 99.0391 44.9687 97.8672 46.082C96.5781 47.3125 95.6406 48.6601 95.3477 49.7148C94.9375 51.2383 95.6406 52.1758 97.9258 51.9414C102.086 51.5312 106.656 48.7773 109.703 46.4336C108.062 50.1836 107.945 51.7656 109.586 52C110.816 52.2344 112.867 51.2383 116.031 49.7148C118.199 48.6601 121.012 47.3125 124.41 45.9062C125.113 45.6133 125.641 44.9101 125.582 44.3242C125.465 43.7383 124.879 43.4453 124.176 43.7383C120.66 45.2031 117.789 46.5508 115.562 47.6055C112.926 48.8945 111.227 49.7148 110.758 49.6562C110.523 49.5976 111.402 47.7226 113.922 42.8008C114.098 42.332 114.098 41.8633 113.805 41.6289C113.395 41.2773 112.574 41.3945 112.047 41.9219C111.988 41.9219 111.109 42.8008 109.703 43.914C109.703 43.7383 109.703 43.5625 109.645 43.4453ZM107.828 45.3203C105.191 47.2539 101.734 49.2461 98.5703 49.539C98.043 49.5976 97.8086 49.539 97.8672 49.4805C97.9844 48.9531 98.5703 48.25 99.3906 47.4297C100.328 46.4922 101.559 45.5547 102.73 44.9101C104.664 43.7969 106.656 43.3281 107.184 44.8515C107.301 45.1445 107.535 45.3203 107.828 45.3203ZM126.93 40.9844C123.238 44.3242 120.191 47.6055 118.844 49.8906C118.258 50.8281 117.965 51.6484 117.906 52.293C117.906 53.2305 118.316 53.7578 119.254 53.9336C119.957 54.1094 121.07 53.875 122.652 53.289C126.461 51.8242 131.734 47.8984 135.836 44.5586C134.488 46.4336 133.199 48.1914 131.91 49.9492C105.602 62.5469 90.3086 74.9101 83.5703 83.3476C79.4102 88.5625 78.3555 92.4883 79.8203 94.3633C81.3438 96.2969 85.2695 96.0625 91.1289 92.957C100.504 87.9765 115.328 75.3203 133.199 51.5898C137.125 49.7148 141.285 47.8398 145.738 45.9648C146.441 45.6719 146.91 44.9687 146.852 44.3828C146.793 43.7969 146.148 43.5625 145.445 43.8555C142.105 45.2617 138.883 46.668 135.836 48.0742C137.945 45.2031 140.113 42.1562 142.281 38.9336C142.691 38.4648 142.75 37.8789 142.398 37.5273C141.988 37.1172 141.227 37.2344 140.641 37.8203C140.582 37.8203 128.863 48.6601 122.418 51.1211C121.422 51.4726 120.777 51.6484 120.484 51.5898C120.484 51.3555 120.66 50.9453 121.012 50.418C122.184 48.4258 124.879 45.4961 128.336 42.3906C128.922 41.8633 129.039 41.1601 128.688 40.75C128.277 40.3398 127.516 40.457 126.93 40.9844ZM90.543 90.9648C85.9727 93.4258 83.043 93.7773 82.1055 92.6055C81.168 91.375 82.1641 88.4453 85.3867 84.3437C91.5977 76.6094 105.426 65.3008 129.156 53.582C112.633 74.9101 99.0977 86.3945 90.543 90.9648ZM262.691 7.87889C262.867 7.87889 262.984 7.87889 263.102 7.99608C263.57 8.28905 263.57 8.99217 263.102 9.57811C262.984 9.6953 251.09 23.7578 238.902 39.2265C239.605 39.2265 240.191 39.2851 240.719 39.3437C243.883 39.5781 245.113 40.457 243.707 42.2148C243.238 42.7422 242.359 43.3281 240.953 43.9726C240.25 44.2656 239.605 44.0312 239.547 43.4453C239.43 42.8594 239.957 42.1562 240.66 41.8047C241.422 41.5117 241.832 41.2773 241.891 41.2187C242.242 40.8086 240.719 41.8047 239.723 41.6875C238.961 41.6289 238.082 41.6289 237.086 41.6289C222.613 60.2031 209.957 79.0117 214.996 79.4219C215.641 79.4805 216.051 79.8906 215.875 80.5351C215.641 81.1797 214.938 81.7656 214.293 81.8242C205.68 82.3515 219.742 61.3164 234.742 41.6289C233.512 41.6875 232.164 41.6875 230.758 41.8047C223.961 42.0976 215.113 42.918 206.734 43.7969C194.488 60.3203 181.188 77.0195 183.062 68.7578C184.586 61.9023 181.48 57.0976 179.254 53.6406C178.141 51.9414 177.203 50.5351 177.086 49.1875C176.91 47.4297 177.848 45.9648 180.777 44.8515C181.598 44.5 193.141 42.918 206.148 41.5703C213.18 31.6094 219.977 21.8828 222.672 18.0156C210.25 19.0703 139.469 26.2773 143.102 51.3555C143.219 51.9414 142.691 52.7031 141.988 52.9961C141.285 53.289 140.641 53.0547 140.582 52.4687C136.129 21.707 224.957 15.4961 225.191 15.4961C225.895 15.4375 226.305 15.9062 226.07 16.6094C226.07 16.7851 225.953 16.9023 225.895 17.0781C225.836 17.1367 217.691 28.7969 208.551 41.2773C216.637 40.457 225.016 39.6953 231.52 39.4023C233.395 39.2851 235.094 39.2265 236.559 39.2265C248.922 23.1133 261.227 8.64061 261.285 8.52342C261.695 8.11327 262.223 7.8203 262.691 7.87889ZM204.391 44.0312C192.262 45.3203 181.715 46.7265 180.953 47.0195C179.957 47.4297 179.605 47.7812 179.605 48.1914C179.723 49.1289 180.543 50.418 181.539 51.9414C183.941 55.6328 186.344 58.6211 185.699 66.1797C185.465 68.4062 194.664 57.625 204.391 44.0312ZM293.395 14.0898C293.629 14.0898 293.805 14.1484 293.922 14.2656C294.273 14.6172 294.098 15.4375 293.512 16.082C293.395 16.3164 292.164 17.8398 290.172 20.418C311.383 19.4805 331.07 20.5937 331.188 20.5937C331.832 20.6523 332.125 21.1797 331.832 21.8828C331.598 22.5273 330.836 23.0547 330.191 22.9961C330.074 22.9961 309.742 21.8242 288.297 22.8203C277.457 36.9414 253.961 68.9336 255.66 77.8984C255.777 78.4844 255.25 79.2461 254.605 79.539C253.902 79.8906 253.199 79.6562 253.141 79.0703C251.5 70.457 269.84 44.1484 281.793 28.0351C272.008 37.8203 265.738 43.3867 262.105 45.9062C260.23 47.2539 258.824 47.8984 257.945 47.957C256.656 47.957 256.305 47.1367 256.715 45.6133C256.891 44.793 257.418 43.6211 258.18 42.2148C255.074 44.4414 250.914 46.8437 247.105 47.1953C244.879 47.3711 244.293 46.4336 244.645 44.9687C244.996 43.7969 245.992 42.332 247.398 40.9844C248.629 39.8125 250.211 38.582 251.734 37.7031C254.957 35.8867 258.238 35.2422 259.293 38.1133C259.352 38.289 259.352 38.5234 259.234 38.8164C260.641 37.7031 261.578 36.8242 261.578 36.8242C262.281 36.1211 263.16 35.9453 263.512 36.414C263.746 36.707 263.688 37.293 263.277 37.8789C261.227 41.043 259.762 43.5039 259.469 44.793C259.41 44.9101 259.234 45.0273 259.293 45.0273C259.586 45.0273 260.289 44.6172 261.52 43.7969C265.328 41.1015 272.359 34.7148 283.902 23.0547C274.234 23.6406 264.566 24.6953 256.656 26.5117C249.742 28.1523 247.34 28.5039 247.34 28.5625C247.281 28.7969 248.512 28.2109 250.094 28.1523C252.203 28.0937 254.898 27.8008 257.242 27.4492C259.352 27.039 260.992 27.1562 261.051 26.9805C261.168 26.3359 261.812 25.6914 262.516 25.5742C263.219 25.457 263.688 25.9258 263.57 26.5703C263.277 28.0937 260.348 29.207 256.832 29.793C254.371 30.2031 251.5 30.4961 249.332 30.5547C246.578 30.6719 244.645 30.2617 244.762 29.1484C244.938 27.918 248.102 26.2187 256.891 24.2265C265.387 22.2344 275.934 21.1211 286.363 20.5937C288.121 18.7773 289.996 16.9023 291.93 14.8515C292.398 14.3828 292.984 14.0898 293.395 14.0898ZM254.898 39.1094C254.02 39.1094 252.965 39.5195 251.91 40.1055C250.797 40.75 249.625 41.6289 248.746 42.5078C248.043 43.2109 247.516 43.8555 247.457 44.1484C247.398 44.3242 247.633 44.3828 248.336 44.3242C251.207 44.0312 254.371 42.2734 256.891 40.5742C256.715 40.5156 256.539 40.3398 256.48 40.164C256.246 39.4023 255.66 39.1094 254.898 39.1094Z" fill="black"/>
</svg>